<svg width="41" height="40" viewBox="0 0 41 40" fill="none" xmlns="http://www.w3.org/2000/svg">
<path d="M28 2.5C28.663 2.5 29.2989 2.76339 29.7678 3.23223C30.2366 3.70107 30.5 4.33696 30.5 5V35C30.5 35.663 30.2366 36.2989 29.7678 36.7678C29.2989 37.2366 28.663 37.5 28 37.5H13C12.337 37.5 11.7011 37.2366 11.2322 36.7678C10.7634 36.2989 10.5 35.663 10.5 35V5C10.5 4.33696 10.7634 3.70107 11.2322 3.23223C11.7011 2.76339 12.337 2.5 13 2.5H28ZM13 0C11.6739 0 10.4021 0.526784 9.46447 1.46447C8.52678 2.40215 8 3.67392 8 5V35C8 36.3261 8.52678 37.5979 9.46447 38.5355C10.4021 39.4732 11.6739 40 13 40H28C29.3261 40 30.5979 39.4732 31.5355 38.5355C32.4732 37.5979 33 36.3261 33 35V5C33 3.67392 32.4732 2.40215 31.5355 1.46447C30.5979 0.526784 29.3261 0 28 0L13 0Z" fill="black"/>
<path d="M20.5 35C21.163 35 21.7989 34.7366 22.2678 34.2678C22.7366 33.7989 23 33.163 23 32.5C23 31.837 22.7366 31.2011 22.2678 30.7322C21.7989 30.2634 21.163 30 20.5 30C19.837 30 19.2011 30.2634 18.7322 30.7322C18.2634 31.2011 18 31.837 18 32.5C18 33.163 18.2634 33.7989 18.7322 34.2678C19.2011 34.7366 19.837 35 20.5 35Z" fill="black"/>
</svg>
