<svg width="11" height="13" viewBox="0 0 11 13" fill="none" xmlns="http://www.w3.org/2000/svg">
<path d="M6.875 4.375H8.75L5.625 1.25V3.125C5.625 3.46875 5.7475 3.76313 5.9925 4.00812C6.2375 4.25313 6.53167 4.37542 6.875 4.375ZM8.75 10.8906L7.875 11.75C7.76042 11.8646 7.61729 11.9246 7.44563 11.93C7.27396 11.9354 7.12542 11.8754 7 11.75C6.88542 11.6354 6.82812 11.4896 6.82812 11.3125C6.82812 11.1354 6.88542 10.9896 7 10.875L7.875 10L7 9.125C6.88542 9.01042 6.82812 8.86458 6.82812 8.6875C6.82812 8.51042 6.88542 8.36458 7 8.25C7.11458 8.13542 7.26042 8.07812 7.4375 8.07812C7.61458 8.07812 7.76042 8.13542 7.875 8.25L8.75 9.125L9.625 8.25C9.73958 8.13542 9.88292 8.07562 10.055 8.07062C10.2271 8.06563 10.3754 8.12542 10.5 8.25C10.6146 8.36458 10.6719 8.51042 10.6719 8.6875C10.6719 8.86458 10.6146 9.01042 10.5 9.125L9.64062 10L10.5 10.875C10.6146 10.9896 10.6746 11.1329 10.68 11.305C10.6854 11.4771 10.6254 11.6254 10.5 11.75C10.3854 11.8646 10.2396 11.9219 10.0625 11.9219C9.88542 11.9219 9.73958 11.8646 9.625 11.75L8.75 10.8906ZM1.25 12.5C0.90625 12.5 0.612083 12.3777 0.3675 12.1331C0.122917 11.8885 0.000416667 11.5942 0 11.25V1.25C0 0.90625 0.1225 0.612083 0.3675 0.3675C0.6125 0.122917 0.906667 0.000416667 1.25 0H5.73438C5.90104 0 6.06 0.0312501 6.21125 0.0937501C6.3625 0.15625 6.49521 0.244792 6.60938 0.359375L9.64062 3.39062C9.75521 3.50521 9.84375 3.63812 9.90625 3.78937C9.96875 3.94062 10 4.09937 10 4.26562V5.96875C10 6.09375 9.95042 6.19271 9.85125 6.26562C9.75208 6.33854 9.64021 6.35937 9.51562 6.32812C8.90104 6.19271 8.29167 6.21354 7.6875 6.39062C7.08333 6.56771 6.55208 6.88542 6.09375 7.34375C5.76042 7.67708 5.49479 8.07021 5.29688 8.52312C5.09896 8.97604 5 9.46333 5 9.985C5 10.2871 5.03646 10.5892 5.10938 10.8912C5.18229 11.1933 5.29167 11.4796 5.4375 11.75C5.53125 11.9271 5.53646 12.0965 5.45312 12.2581C5.36979 12.4198 5.23958 12.5004 5.0625 12.5H1.25Z" fill="black"/>
</svg>
