<svg width="18" height="12" viewBox="0 0 18 12" fill="none" xmlns="http://www.w3.org/2000/svg">
<path fill-rule="evenodd" clip-rule="evenodd" d="M17.77 6C17.77 5.641 17.576 5.406 17.188 4.934C15.768 3.21 12.636 0 8.99998 0C5.36398 0 2.23198 3.21 0.81198 4.934C0.42398 5.406 0.22998 5.641 0.22998 6C0.22998 6.359 0.42398 6.594 0.81198 7.066C2.23198 8.79 5.36398 12 8.99998 12C12.636 12 15.768 8.79 17.188 7.066C17.576 6.594 17.77 6.359 17.77 6ZM8.99998 9C9.79563 9 10.5587 8.68393 11.1213 8.12132C11.6839 7.55871 12 6.79565 12 6C12 5.20435 11.6839 4.44129 11.1213 3.87868C10.5587 3.31607 9.79563 3 8.99998 3C8.20433 3 7.44127 3.31607 6.87866 3.87868C6.31605 4.44129 5.99998 5.20435 5.99998 6C5.99998 6.79565 6.31605 7.55871 6.87866 8.12132C7.44127 8.68393 8.20433 9 8.99998 9Z" fill="black"/>
</svg>
