<svg width="14" height="14" viewBox="0 0 14 14" fill="none" xmlns="http://www.w3.org/2000/svg">
<path d="M6.625 1.62268H2.25C1.91848 1.62268 1.60054 1.75438 1.36612 1.9888C1.1317 2.22322 1 2.54116 1 2.87268V11.6227C1 11.9542 1.1317 12.2721 1.36612 12.5066C1.60054 12.741 1.91848 12.8727 2.25 12.8727H11C11.3315 12.8727 11.6495 12.741 11.8839 12.5066C12.1183 12.2721 12.25 11.9542 12.25 11.6227V7.24768" stroke="black" stroke-width="2" stroke-linecap="round" stroke-linejoin="round"/>
<path d="M9.60895 1.38833C9.85759 1.13968 10.1948 1 10.5464 1C10.8981 1 11.2353 1.13968 11.4839 1.38833C11.7326 1.63697 11.8723 1.97419 11.8723 2.32583C11.8723 2.67746 11.7326 3.01468 11.4839 3.26333L5.85082 8.89708C5.70241 9.04535 5.51907 9.1539 5.3177 9.2127L3.52207 9.7377C3.46829 9.75339 3.41128 9.75433 3.35701 9.74042C3.30275 9.72652 3.25321 9.69828 3.2136 9.65867C3.17399 9.61906 3.14575 9.56952 3.13185 9.51526C3.11794 9.46099 3.11888 9.40398 3.13457 9.3502L3.65957 7.55457C3.71865 7.35336 3.8274 7.17024 3.97582 7.02208L9.60895 1.38833Z" stroke="black" stroke-width="2" stroke-linecap="round" stroke-linejoin="round"/>
</svg>
