<svg width="16" height="16" viewBox="0 0 16 16" fill="none" xmlns="http://www.w3.org/2000/svg">
<path d="M8.5 7.5H11V8.5H8.5V11H7.5V8.5H5V7.5H7.5V5H8.5V7.5ZM8 1C8.64583 1 9.26562 1.08333 9.85938 1.25C10.4531 1.41667 11.0104 1.65104 11.5312 1.95312C12.0521 2.25521 12.5234 2.61979 12.9453 3.04688C13.3672 3.47396 13.7318 3.94531 14.0391 4.46094C14.3464 4.97656 14.5833 5.53385 14.75 6.13281C14.9167 6.73177 15 7.35417 15 8C15 8.64583 14.9167 9.26562 14.75 9.85938C14.5833 10.4531 14.349 11.0104 14.0469 11.5312C13.7448 12.0521 13.3802 12.5234 12.9531 12.9453C12.526 13.3672 12.0547 13.7318 11.5391 14.0391C11.0234 14.3464 10.4661 14.5833 9.86719 14.75C9.26823 14.9167 8.64583 15 8 15C7.35417 15 6.73438 14.9167 6.14062 14.75C5.54688 14.5833 4.98958 14.349 4.46875 14.0469C3.94792 13.7448 3.47656 13.3802 3.05469 12.9531C2.63281 12.526 2.26823 12.0547 1.96094 11.5391C1.65365 11.0234 1.41667 10.4661 1.25 9.86719C1.08333 9.26823 1 8.64583 1 8C1 7.35417 1.08333 6.73438 1.25 6.14062C1.41667 5.54688 1.65104 4.98958 1.95312 4.46875C2.25521 3.94792 2.61979 3.47656 3.04688 3.05469C3.47396 2.63281 3.94531 2.26823 4.46094 1.96094C4.97656 1.65365 5.53385 1.41667 6.13281 1.25C6.73177 1.08333 7.35417 1 8 1ZM8 14C8.55208 14 9.08333 13.9297 9.59375 13.7891C10.1042 13.6484 10.5807 13.4453 11.0234 13.1797C11.4661 12.9141 11.8724 12.6016 12.2422 12.2422C12.612 11.8828 12.9245 11.4792 13.1797 11.0312C13.4349 10.5833 13.6354 10.1042 13.7812 9.59375C13.9271 9.08333 14 8.55208 14 8C14 7.44792 13.9297 6.91667 13.7891 6.40625C13.6484 5.89583 13.4453 5.41927 13.1797 4.97656C12.9141 4.53385 12.6016 4.1276 12.2422 3.75781C11.8828 3.38802 11.4792 3.07552 11.0312 2.82031C10.5833 2.5651 10.1042 2.36458 9.59375 2.21875C9.08333 2.07292 8.55208 2 8 2C7.44792 2 6.91667 2.07031 6.40625 2.21094C5.89583 2.35156 5.41927 2.55469 4.97656 2.82031C4.53385 3.08594 4.1276 3.39844 3.75781 3.75781C3.38802 4.11719 3.07552 4.52083 2.82031 4.96875C2.5651 5.41667 2.36458 5.89583 2.21875 6.40625C2.07292 6.91667 2 7.44792 2 8C2 8.55208 2.07031 9.08333 2.21094 9.59375C2.35156 10.1042 2.55469 10.5807 2.82031 11.0234C3.08594 11.4661 3.39844 11.8724 3.75781 12.2422C4.11719 12.612 4.52083 12.9245 4.96875 13.1797C5.41667 13.4349 5.89583 13.6354 6.40625 13.7812C6.91667 13.9271 7.44792 14 8 14Z" fill="white"/>
</svg>
