<svg width="68" height="68" viewBox="0 0 68 68" fill="none" xmlns="http://www.w3.org/2000/svg">
<path d="M0.75 34C0.75 18.327 0.75 10.487 5.6185 5.6185C10.487 0.75 18.3235 0.75 34 0.75C49.673 0.75 57.513 0.75 62.3815 5.6185C67.25 10.487 67.25 18.3235 67.25 34C67.25 49.673 67.25 57.513 62.3815 62.3815C57.513 67.25 49.6765 67.25 34 67.25C18.327 67.25 10.487 67.25 5.6185 62.3815C0.75 57.513 0.75 49.6765 0.75 34Z" stroke="black" stroke-width="1.5" stroke-linecap="round" stroke-linejoin="round"/>
<path d="M53.278 14.75H53.243M49.75 34C49.75 38.1772 48.0906 42.1832 45.1369 45.1369C42.1832 48.0906 38.1772 49.75 34 49.75C29.8228 49.75 25.8168 48.0906 22.8631 45.1369C19.9094 42.1832 18.25 38.1772 18.25 34C18.25 29.8228 19.9094 25.8168 22.8631 22.8631C25.8168 19.9094 29.8228 18.25 34 18.25C38.1772 18.25 42.1832 19.9094 45.1369 22.8631C48.0906 25.8168 49.75 29.8228 49.75 34Z" stroke="black" stroke-width="1.5" stroke-linecap="round" stroke-linejoin="round"/>
</svg>
