<svg width="41" height="40" viewBox="0 0 41 40" fill="none" xmlns="http://www.w3.org/2000/svg">
<path d="M20.5 10.8333C21.6051 10.8333 22.6649 11.2722 23.4463 12.0536C24.2277 12.835 24.6667 13.8949 24.6667 14.9999C24.6667 15.5471 24.5589 16.0889 24.3495 16.5944C24.1401 17.1 23.8332 17.5593 23.4463 17.9462C23.0594 18.3331 22.6001 18.64 22.0946 18.8494C21.589 19.0588 21.0472 19.1666 20.5 19.1666C19.395 19.1666 18.3352 18.7276 17.5538 17.9462C16.7724 17.1648 16.3334 16.105 16.3334 14.9999C16.3334 13.8949 16.7724 12.835 17.5538 12.0536C18.3352 11.2722 19.395 10.8333 20.5 10.8333ZM20.5 3.33325C23.5942 3.33325 26.5617 4.56242 28.7496 6.75034C30.9375 8.93826 32.1667 11.9057 32.1667 14.9999C32.1667 23.7499 20.5 36.6666 20.5 36.6666C20.5 36.6666 8.83337 23.7499 8.83337 14.9999C8.83337 11.9057 10.0625 8.93826 12.2505 6.75034C14.4384 4.56242 17.4058 3.33325 20.5 3.33325ZM20.5 6.66659C18.2899 6.66659 16.1703 7.54456 14.6075 9.10736C13.0447 10.6702 12.1667 12.7898 12.1667 14.9999C12.1667 16.6666 12.1667 19.9999 20.5 31.1833C28.8334 19.9999 28.8334 16.6666 28.8334 14.9999C28.8334 12.7898 27.9554 10.6702 26.3926 9.10736C24.8298 7.54456 22.7102 6.66659 20.5 6.66659Z" fill="black"/>
</svg>
