<svg width="14" height="14" viewBox="0 0 14 14" fill="none" xmlns="http://www.w3.org/2000/svg">
<path d="M7.5 6.5H10V7.5H7.5V10H6.5V7.5H4V6.5H6.5V4H7.5V6.5ZM7 0C7.64583 0 8.26562 0.0833333 8.85938 0.25C9.45312 0.416667 10.0104 0.651042 10.5312 0.953125C11.0521 1.25521 11.5234 1.61979 11.9453 2.04688C12.3672 2.47396 12.7318 2.94531 13.0391 3.46094C13.3464 3.97656 13.5833 4.53385 13.75 5.13281C13.9167 5.73177 14 6.35417 14 7C14 7.64583 13.9167 8.26562 13.75 8.85938C13.5833 9.45312 13.349 10.0104 13.0469 10.5312C12.7448 11.0521 12.3802 11.5234 11.9531 11.9453C11.526 12.3672 11.0547 12.7318 10.5391 13.0391C10.0234 13.3464 9.46615 13.5833 8.86719 13.75C8.26823 13.9167 7.64583 14 7 14C6.35417 14 5.73438 13.9167 5.14062 13.75C4.54688 13.5833 3.98958 13.349 3.46875 13.0469C2.94792 12.7448 2.47656 12.3802 2.05469 11.9531C1.63281 11.526 1.26823 11.0547 0.960938 10.5391C0.653646 10.0234 0.416667 9.46615 0.25 8.86719C0.0833333 8.26823 0 7.64583 0 7C0 6.35417 0.0833333 5.73438 0.25 5.14062C0.416667 4.54688 0.651042 3.98958 0.953125 3.46875C1.25521 2.94792 1.61979 2.47656 2.04688 2.05469C2.47396 1.63281 2.94531 1.26823 3.46094 0.960938C3.97656 0.653646 4.53385 0.416667 5.13281 0.25C5.73177 0.0833333 6.35417 0 7 0ZM7 13C7.55208 13 8.08333 12.9297 8.59375 12.7891C9.10417 12.6484 9.58073 12.4453 10.0234 12.1797C10.4661 11.9141 10.8724 11.6016 11.2422 11.2422C11.612 10.8828 11.9245 10.4792 12.1797 10.0312C12.4349 9.58333 12.6354 9.10417 12.7812 8.59375C12.9271 8.08333 13 7.55208 13 7C13 6.44792 12.9297 5.91667 12.7891 5.40625C12.6484 4.89583 12.4453 4.41927 12.1797 3.97656C11.9141 3.53385 11.6016 3.1276 11.2422 2.75781C10.8828 2.38802 10.4792 2.07552 10.0312 1.82031C9.58333 1.5651 9.10417 1.36458 8.59375 1.21875C8.08333 1.07292 7.55208 1 7 1C6.44792 1 5.91667 1.07031 5.40625 1.21094C4.89583 1.35156 4.41927 1.55469 3.97656 1.82031C3.53385 2.08594 3.1276 2.39844 2.75781 2.75781C2.38802 3.11719 2.07552 3.52083 1.82031 3.96875C1.5651 4.41667 1.36458 4.89583 1.21875 5.40625C1.07292 5.91667 1 6.44792 1 7C1 7.55208 1.07031 8.08333 1.21094 8.59375C1.35156 9.10417 1.55469 9.58073 1.82031 10.0234C2.08594 10.4661 2.39844 10.8724 2.75781 11.2422C3.11719 11.612 3.52083 11.9245 3.96875 12.1797C4.41667 12.4349 4.89583 12.6354 5.40625 12.7812C5.91667 12.9271 6.44792 13 7 13Z" fill="white"/>
</svg>
